<svg xmlns="http://www.w3.org/2000/svg" xmlns:xlink="http://www.w3.org/1999/xlink" version="1.1" x="0px" y="0px" viewBox="0 0 100 125" enable-background="new 0 0 100 100" xml:space="preserve"><path d="M96.4,38.7l-0.1-0.1c0.1-0.6-0.2-1.2-0.7-1.6L66.9,18.5l-1.2-0.8l-2-1.3c-1-0.6-2.1-1-3.2-1l0,0h-0.8  c-1.3,0-2.5,0.2-3.7,0.7l-5.8,2.4h2.1l-3.1,1.3h2.2l-3,1.4h2.9c-0.7,1.8-0.8,3.8-0.2,5.7l5.2,16c0.2,0.5,0.3,1.1,0.3,1.6v0  c0,2.8-2,5.2-4.8,5.6l-2.1,0.3c0,0,0,0,0,0l0,0l-25.7,3.9c-5.8,0.9-10.6,5.1-12.2,10.8L6.1,82.7l2.3-1.1l-2.3,7.8l12.6-10.5h9.1  c1.3,0,2.6-0.1,3.9-0.2v2l2.5,4.1h-2.9l1.4,1.6h10.2l-1.4-1.6H36l-2.7-4.5v-1.7c1.7-0.2,3.4-0.5,5.1-0.9v0.2l2.4,4.1h-2.9l1.4,1.5  h10.2L48.1,82h-5.4L40,77.4v-0.2c4.6-1.2,9-3.2,13-5.8c4.5-2.9,7.7-7.5,9-12.7c0.4-1.6,0.6-3.2,0.6-5h0v0v-6.3l0,0l0-3.7  c0.5-3,3.1-5.2,6.2-5.2h26l1.3,0.7c0,0,0,0,0,0l0.1,0L96.4,38.7z"/></svg>
